PathFileType	4	(X/Y/Z)	C:\Users\Basilio\Documents\Thesis Gigler\squatting_fais\c3dfiles\047\SLS_pre_back4\markers_experimental.trc
DataRate	CameraRate	NumFrames	NumMarkers	Units	OrigDataRate	OrigDataStartFrame	OrigNumFrames
200.000000	200.000000	4	61	mm	200.000000	633	1267
Frame#	Time	FHD			LBHD			RBHD			C7			T10			CLAV			LSHO			LUUPA			LMUPA			LDUPA			LLEP			LMEP			LRAD			LUL			LRFIN			RSHO			RUPA1			RMUPA			RDUPA			RLEP			RMEP			RUL			RUFIN			LASI			RASI			USACR			LSACR			RSACR			LTHI1			LTHI2			LTHI3			LTHI4			LLFC			LMFC			LTIB1			LTIB2			LTIB3			LTIB4			LLMAL			LMMAL			LMT1			LMT2			LMT5			RTHI			RTHI2			RTHI3			RTHI4			RLFC			RMFC			RTIB1			RTIB2			RTIB3			RTIB4			RLMAL			RMMAL			RHEE			RMT1			RMT2			RMT5			RRAD			*60			
		X1	Y1	Z1	X2	Y2	Z2	X3	Y3	Z3	X4	Y4	Z4	X5	Y5	Z5	X6	Y6	Z6	X7	Y7	Z7	X8	Y8	Z8	X9	Y9	Z9	X10	Y10	Z10	X11	Y11	Z11	X12	Y12	Z12	X13	Y13	Z13	X14	Y14	Z14	X15	Y15	Z15	X16	Y16	Z16	X17	Y17	Z17	X18	Y18	Z18	X19	Y19	Z19	X20	Y20	Z20	X21	Y21	Z21	X22	Y22	Z22	X23	Y23	Z23	X24	Y24	Z24	X25	Y25	Z25	X26	Y26	Z26	X27	Y27	Z27	X28	Y28	Z28	X29	Y29	Z29	X30	Y30	Z30	X31	Y31	Z31	X32	Y32	Z32	X33	Y33	Z33	X34	Y34	Z34	X35	Y35	Z35	X36	Y36	Z36	X37	Y37	Z37	X38	Y38	Z38	X39	Y39	Z39	X40	Y40	Z40	X41	Y41	Z41	X42	Y42	Z42	X43	Y43	Z43	X44	Y44	Z44	X45	Y45	Z45	X46	Y46	Z46	X47	Y47	Z47	X48	Y48	Z48	X49	Y49	Z49	X50	Y50	Z50	X51	Y51	Z51	X52	Y52	Z52	X53	Y53	Z53	X54	Y54	Z54	X55	Y55	Z55	X56	Y56	Z56	X57	Y57	Z57	X58	Y58	Z58	X59	Y59	Z59	X60	Y60	Z60	X61	Y61	Z61	

634	3.165	47.90525817871094	1402.066284179688	-1117.586669921875	-132.9976196289063	1387.699829101563	-1137.043701171875	-104.7483520507813	1388.012084960938	-990.9569091796877	-185.3315887451172	1245.765625	-1060.537719726563	-363.0628967285157	1005.958129882813	-1011.154479980469	-76.18027496337892	1130.109497070313	-1089.811767578125	-136.2426910400391	1177.956420898438	-1237.09765625	-116.2820892333985	1029.827392578125	-1347.869995117188	-67.31392669677736	1044.299438476563	-1346.916259765625	-63.25098037719728	987.3860473632815	-1365.010375976563	3.907112121582032	959.1882324218752	-1376.081298828125	-15.64411163330078	906.9852294921877	-1302.100341796875	186.2052917480469	1033.437255859375	-1209.531372070313	212.5871276855469	962.7585449218752	-1209.065063476563	275.3131408691407	1028.497680664063	-1207.34228515625	-71.35623931884767	1182.690063476563	-938.1566162109377	-0.3729164600372315	1032.038696289063	-841.204772949219	38.9704933166504	1043.2080078125	-868.0670166015627	51.95060348510744	986.567077636719	-851.3059692382815	118.0132827758789	956.913757324219	-876.3740844726565	70.50545501708986	898.5046997070315	-925.9382934570315	267.5307922363282	960.4742431640627	-1094.375732421875	260.5588378906251	1049.157348632813	-1122.251342773438	-310.1695861816407	740.8511352539064	-1089.955932617188	-308.6904907226563	748.8264160156251	-861.7825317382815	-447.7395629882814	888.124694824219	-984.2603149414065	-469.0331115722657	862.8663330078127	-1011.471740722656	-464.3317260742189	863.0876464843752	-952.8474731445315	-352.3387756347657	646.5693969726564	-1173.005493164063	-271.5945129394532	622.4291381835939	-1173.313354492188	-241.523666381836	657.6666259765626	-1157.035034179688	-250.1135711669922	566.5977172851564	-1176.937133789063	-145.1529541015625	439.9669189453126	-1149.637573242188	-112.8367309570313	450.5241699218751	-1024.663818359375	-177.8767395019532	289.2307128906251	-1031.315551757813	-204.7928924560547	240.6653594970704	-1097.06689453125	-193.5795593261719	237.7163696289063	-1052.853515625	-249.1778411865235	186.6710968017578	-1018.203979492188	-341.5139770507813	120.7766265869141	-1061.437744140625	-316.5956115722657	140.4757690429688	-973.501403808594	-209.1659088134766	62.67377090454103	-990.3897094726565	-207.5798339843751	62.02048110961915	-1035.567138671875	-258.3363037109376	50.93471527099611	-1078.963989257813	-400.3030700683595	591.8903808593751	-770.0186157226565	-359.8476562500001	538.8037719726564	-768.0017700195315	-330.6156616210938	538.9335937500001	-781.8616943359377	-384.0287170410157	457.9126586914064	-763.4253540039064	-381.1541748046876	327.2637329101563	-782.3317871093752	-390.2050170898439	305.1643371582032	-912.625183105469	-481.8139648437501	257.3078308105469	-786.2114257812502	-566.4904785156251	316.7573852539063	-743.9953613281251	-561.9030151367189	270.3507690429688	-752.6677246093751	-612.4230957031251	252.4040069580079	-779.791931152344	-764.0556030273439	305.3808898925782	-738.6043090820314	-756.8638305664064	268.6080932617188	-823.2947387695315	-787.710144042969	358.9033813476563	-797.1545410156252	-845.4465942382815	160.748291015625	-796.784606933594	-842.8083496093752	154.95166015625	-749.3928833007814	-860.9483642578127	212.9329528808594	-700.9628295898439	206.6542968750001	993.660583496094	-1129.282958984375	nan	nan	nan	
635	3.17	48.55007553100587	1401.28271484375	-1118.03955078125	-132.4113159179688	1386.463989257813	-1136.958862304688	-104.3355941772461	1386.857299804688	-990.8233642578127	-184.8318176269532	1245.078247070313	-1060.504028320313	-362.8361511230469	1005.337585449219	-1011.213317871094	-75.57767486572267	1128.936767578125	-1089.874145507813	-135.6270294189453	1176.77099609375	-1236.8759765625	-116.0969848632813	1028.848388671875	-1347.788330078125	-67.00762176513673	1043.3203125	-1346.853759765625	-62.89114379882814	986.3989257812502	-1365.039794921875	4.309205055236817	958.063903808594	-1375.988159179688	-15.36683750152588	905.883239746094	-1302.01513671875	186.4095458984375	1032.391357421875	-1209.419921875	212.7418670654297	961.5831298828127	-1208.967407226563	275.9502258300782	1027.131103515625	-1207.512451171875	-71.40642547607423	1181.827758789063	-937.9431152343752	0.06319344788789751	1030.930297851563	-841.2720947265627	39.25099182128907	1041.853393554688	-867.422546386719	52.23887634277345	985.5295410156252	-851.2895507812502	118.0758590698242	955.871520996094	-876.178405761719	70.79864501953126	897.4802856445315	-926.0673828125002	267.7961120605469	959.6458129882815	-1094.41064453125	261.0317687988282	1047.965942382813	-1122.214477539063	-309.6120300292969	740.9252319335939	-1090.067016601563	-308.7990112304688	748.0617065429689	-861.9114379882815	-447.8068237304689	887.519470214844	-984.222106933594	-468.7374267578126	862.4109497070315	-1011.533630371094	-464.2682495117189	862.4631958007815	-952.8528442382815	-352.3114013671876	646.0955200195314	-1173.043701171875	-270.9716186523438	621.8671875000001	-1173.413818359375	-241.5124206542969	657.2429809570314	-1157.098510742188	-250.0429077148438	566.2293090820314	-1177.029052734375	-145.0213165283203	439.7552185058595	-1149.792846679688	-112.5630950927735	450.3582458496095	-1024.677856445313	-177.8286895751953	289.1680297851563	-1031.362670898438	-204.7646942138672	240.5693969726563	-1097.075805664063	-193.5112457275391	237.6702270507813	-1052.728393554688	-249.2035522460938	186.6057891845703	-1018.191345214844	-341.4732055664063	120.7611160278321	-1061.451538085938	-316.5606689453126	140.5081939697266	-973.5085449218752	-209.1501617431641	62.70068740844728	-990.417175292969	-207.5864562988282	61.98918533325197	-1035.579956054688	-258.2574157714844	50.94161987304689	-1078.987670898438	-400.6125793457032	591.2038574218751	-770.1522216796877	-360.0693969726563	537.5711059570314	-768.2877197265627	-330.9930419921876	538.0612792968751	-781.950866699219	-384.4009704589845	457.2537536621095	-763.7141723632814	-381.6935424804688	325.9454345703126	-782.5789794921877	-390.6162719726564	304.0946350097657	-912.8076782226565	-482.5035705566407	256.5498352050782	-786.148620605469	-567.0144042968751	316.2346191406251	-744.3090820312501	-562.4508056640626	269.7922668457032	-753.0050659179689	-613.2608642578126	251.8132629394532	-779.5161132812502	-764.5631103515626	305.0101013183594	-738.7155151367189	-757.6593017578126	268.2503967285157	-823.7006835937502	-788.1680297851565	358.7485351562501	-797.5740966796877	-847.2214355468752	159.7053680419922	-796.4423828125002	-843.783630371094	155.0434722900391	-750.1815795898439	-861.639831542969	212.6716613769532	-701.3109741210939	206.9780883789063	992.4647216796877	-1129.312255859375	nan	nan	nan	
636	3.175	48.02750396728517	1399.661376953125	-1115.926391601563	-131.9013061523438	1385.30615234375	-1136.87060546875	-103.8171768188477	1386.111938476563	-990.8030395507815	-184.1865997314453	1243.724487304688	-1060.442504882813	-362.6109008789063	1004.602294921875	-1011.330200195313	-75.36080932617189	1128.33935546875	-1089.890380859375	-135.8147583007813	1175.98046875	-1236.850952148438	-115.7790145874024	1027.9521484375	-1347.777709960938	-66.85672760009767	1042.677856445313	-1347.087036132813	-62.86266326904298	985.4284667968752	-1364.949462890625	4.71065902709961	956.9063720703127	-1376.011596679688	-14.9035120010376	904.848571777344	-1302.06298828125	186.7757568359375	1031.1474609375	-1209.42578125	212.7624206542969	960.4810791015627	-1208.949584960938	276.5180969238282	1026.138549804688	-1207.695068359375	-70.70471191406251	1180.907348632813	-938.1201782226565	0.4808309376239778	1030.151245117188	-841.2634887695315	39.79443359375001	1040.994750976563	-868.0385742187502	52.4120330810547	984.485046386719	-851.108337402344	118.4508666992188	954.730895996094	-876.272888183594	71.00514221191408	896.4462890625002	-925.8814086914065	267.9661865234376	958.1567382812502	-1094.12060546875	261.1853942871094	1046.470947265625	-1121.691284179688	-309.9250488281251	740.1561279296876	-1090.230102539063	-308.7352905273438	747.2220458984376	-862.076599121094	-447.6642150878907	886.9771728515627	-984.2932128906252	-468.6336364746095	861.8565673828127	-1011.562194824219	-464.5022583007814	862.0701293945315	-952.7183837890627	-352.3909606933594	645.5343017578126	-1173.157836914063	-271.4881286621094	621.7225341796876	-1173.515625	-241.4125518798829	656.9431762695314	-1157.28173828125	-249.9949493408204	565.8782958984376	-1177.176147460938	-144.7956085205078	439.4226379394532	-1149.962036132813	-112.2628784179688	450.251434326172	-1024.881225585938	-177.8268127441407	289.1194152832032	-1031.364990234375	-200.4084472656251	241.9395904541016	-1098.884155273438	-193.5543060302735	237.6021270751954	-1052.746704101563	-249.1124114990235	186.573959350586	-1018.271301269531	-341.5033874511719	120.7216491699219	-1061.494018554688	-316.4968566894532	140.5590972900391	-973.6157226562502	-209.7848815917969	62.51937484741212	-990.0943603515627	-207.582992553711	61.96527481079103	-1035.594482421875	-258.2990722656251	50.87155151367189	-1078.98974609375	-400.8970642089845	590.3839111328126	-770.084167480469	-360.3291625976563	536.9962768554689	-768.2691040039065	-331.1980895996094	536.9150390625001	-782.0864868164065	-384.9893798828126	456.4159545898439	-763.8091430664064	-382.1937255859376	325.4126586914063	-782.927185058594	-391.2233886718751	303.3589172363282	-913.0700683593752	-483.2785034179689	255.8432769775391	-785.6301879882815	-567.5234985351564	315.6720581054688	-744.7739868164064	-563.0709228515626	269.2387695312501	-753.3497924804689	-614.0086059570314	251.4491424560547	-779.335876464844	-765.0159912109376	304.8413696289063	-738.9614868164064	-758.1436157226564	267.8676452636719	-823.9782714843752	-788.3974609375002	358.6523132324219	-797.9473876953127	-848.0418701171877	159.5295104980469	-796.5359497070315	-844.501892089844	154.8930358886719	-750.5944824218751	-862.4604492187502	212.7360534667969	-701.7195434570314	207.299789428711	991.309509277344	-1129.2958984375	nan	nan	nan	
637	3.18	49.49540328979494	1399.24853515625	-1116.856079101563	-131.6200256347657	1384.485473632813	-1136.842651367188	-103.4126052856446	1384.681274414063	-990.3854980468752	-183.7344818115235	1242.936645507813	-1060.54541015625	-362.5250244140626	1003.789733886719	-1011.236572265625	-75.1799774169922	1127.187744140625	-1089.661743164063	-135.0970001220703	1174.99951171875	-1236.988403320313	-115.2720184326172	1027.015258789063	-1347.787353515625	-66.36087799072267	1041.483520507813	-1346.99755859375	-62.51637268066408	984.4908447265627	-1364.93896484375	5.095829010009767	955.8830566406252	-1376.036376953125	-14.64729309082032	903.8533935546877	-1301.984741210938	187.0993804931641	1029.992553710938	-1209.315185546875	213.0143737792969	959.3328857421877	-1208.838989257813	276.1535949707032	1024.710815429688	-1207.0185546875	-70.60122680664064	1179.607055664063	-937.934265136719	0.6400597691535951	1028.8564453125	-841.0205078125002	39.98069381713868	1040.159301757813	-868.150817871094	52.64441299438478	983.431823730469	-851.185241699219	118.4471588134766	953.6353759765627	-875.8582153320315	71.53792572021486	895.403991699219	-926.2294921875002	268.3170471191407	957.0469970703127	-1094.12451171875	261.4086914062501	1045.298950195313	-1122.047607421875	-310.7263793945313	737.5454711914064	-1089.898559570313	-308.8753967285157	746.2285766601564	-861.8127441406252	-446.6954345703126	885.8343505859377	-984.6607055664065	-468.5845947265626	861.0986938476565	-1011.561706542969	-464.4353637695314	861.2991943359377	-952.878845214844	-352.4407653808594	645.0436401367189	-1173.319091796875	-271.4883117675782	621.3103027343751	-1173.580444335938	-241.4636840820313	656.6316528320314	-1157.414428710938	-249.9277038574219	565.4773559570314	-1177.382934570313	-144.5948638916016	439.1403198242189	-1150.081665039063	-112.170150756836	450.0818786621095	-1025.0029296875	-177.7701568603516	289.0195312500001	-1031.547973632813	-204.6950225830079	240.1993560791016	-1097.190673828125	-193.3386230468751	237.5225982666016	-1052.863525390625	-249.0873565673829	186.501953125	-1018.374755859375	-341.4808959960938	120.7257690429688	-1061.51513671875	-316.4899902343751	140.5504455566407	-973.6716308593752	-209.9865722656251	62.43665313720705	-990.0560302734377	-207.6653594970704	61.92979049682619	-1035.642333984375	-258.3289489746094	50.81282424926759	-1079.016845703125	-401.080047607422	589.4033203125001	-770.2672119140627	-360.6387023925782	536.0783691406251	-768.7817382812502	-331.2960205078126	536.2106933593751	-782.2454833984377	-385.2032775878907	455.3581848144532	-763.7873535156251	-382.7855529785157	324.4741821289063	-783.0242309570315	-391.9869689941407	302.7986145019532	-913.3818969726565	-483.9940185546876	255.0929870605469	-786.403747558594	-568.3011474609376	315.0939331054688	-744.7886962890626	-563.8424072265626	268.5180053710938	-753.7487792968751	-614.6439208984376	250.740463256836	-779.7144775390627	-765.7215576171876	304.4462890625001	-739.4282836914064	-758.8974609375001	267.5946655273438	-824.4023437500002	-788.8004150390627	358.2247924804688	-798.290466308594	-848.834167480469	159.3777008056641	-796.825622558594	-845.1530761718752	154.4428405761719	-750.9611816406251	-863.2343750000002	212.7821807861329	-702.0382690429689	207.6160125732422	990.1890258789065	-1129.22998046875	nan	nan	nan	
